<?xml version="1.0" encoding="iso-8859-1"?>
<!-- Uploaded to: SVG Repo, www.svgrepo.com, Generator: SVG Repo Mixer Tools -->
<!DOCTYPE svg PUBLIC "-//W3C//DTD SVG 1.1//EN" "http://www.w3.org/Graphics/SVG/1.1/DTD/svg11.dtd">
<svg fill="#000000" version="1.1" id="Capa_1" xmlns="http://www.w3.org/2000/svg" xmlns:xlink="http://www.w3.org/1999/xlink" 
	 width="800px" height="800px" viewBox="0 0 214.535 214.536"
	 xml:space="preserve">
<g>
	<g>
		<path d="M1.752,191.518c-0.967,0-1.752-0.784-1.752-1.753v-31.833c0-0.965,0.785-1.752,1.752-1.752h47.853
			c0.094-0.096,0.203-0.209,0.311-0.325c2.745-2.851,11.091-11.536,9.563-21.665c-1.135-7.512-7.43-14.483-18.712-20.719
			c-13.766-7.612-24.022-9.224-29.675-4.646c-5.501,4.455-5.736,14.209-4.16,19.4c1.33,4.377,3.491,7.039,6.427,7.918
			c6.964,2.099,16.527-5.759,16.618-5.838c0.739-0.623,1.843-0.523,2.467,0.223c0.62,0.739,0.519,1.845-0.221,2.464
			c-0.448,0.373-11.067,9.113-19.862,6.509c-4.136-1.238-7.089-4.688-8.783-10.26c-1.906-6.289-1.523-17.62,5.309-23.144
			c6.938-5.619,18.24-4.173,33.575,4.309c12.282,6.789,19.176,14.619,20.483,23.264c1.787,11.834-7.465,21.453-10.502,24.612
			c-0.33,0.346-0.582,0.605-0.722,0.773c-0.333,0.396-0.823,0.629-1.347,0.629H3.504v30.081
			C3.504,190.734,2.724,191.518,1.752,191.518z"/>
	</g>
	<g>
		<polygon points="59.135,169.759 59.135,157.932 1.752,157.932 1.752,169.759 1.752,189.765 59.135,189.765 212.448,189.765 
			212.448,169.759 		"/>
		<path d="M214.2,191.518H0V156.18h60.887v11.827H214.2V191.518z M3.504,188.013h207.191v-16.502H57.383v-11.827H3.504V188.013z"/>
	</g>
	<g>
		<polygon points="111.262,111.063 117.394,99.388 129.221,111.063 116.518,115.881 61.421,166.255 61.421,157.932 		"/>
		<path d="M59.669,170.232v-13.056l50.181-47.188l7.093-13.509l15.451,15.258l-14.945,5.664L59.669,170.232z M63.173,158.692v3.587
			l52.726-48.037l10.153-3.852l-8.206-8.099l-5.38,10.044L63.173,158.692z"/>
	</g>
	<g>
		<polygon points="120.022,93.541 135.354,109.311 145.428,101.426 129.221,83.466 		"/>
		<path d="M135.192,111.665l-17.58-18.084l11.612-12.72l18.764,20.792L135.192,111.665z M122.432,93.503l13.086,13.456l7.351-5.756
			l-13.65-15.129L122.432,93.503z"/>
	</g>
	<g>
		<polygon points="132.726,79.086 150.247,99.388 177.843,72.515 208.943,47.547 212.448,40.101 198.431,24.769 190.108,24.769 
			160.321,55.87 		"/>
		<path d="M150.137,101.939L130.24,78.887l28.952-24.359l30.166-31.511h9.846l15.331,16.769l-4.175,8.874l-31.416,25.219
			L150.137,101.939z M135.21,79.283l15.146,17.551l26.265-25.576l30.905-24.825l2.837-6.02l-12.706-13.896h-6.797L161.588,57.08
			L135.21,79.283z"/>
	</g>
</g>
</svg>